<?xml version="1.0" encoding="UTF-8" standalone="no"?>
<!-- Created with Inkscape (http://www.inkscape.org/) -->

<svg
   xmlns:dc="http://purl.org/dc/elements/1.1/"
   xmlns:cc="http://creativecommons.org/ns#"
   xmlns:rdf="http://www.w3.org/1999/02/22-rdf-syntax-ns#"
   xmlns:svg="http://www.w3.org/2000/svg"
   xmlns="http://www.w3.org/2000/svg"
   xmlns:sodipodi="http://sodipodi.sourceforge.net/DTD/sodipodi-0.dtd"
   xmlns:inkscape="http://www.inkscape.org/namespaces/inkscape"
   width="500"
   height="500"
   id="svg2"
   version="1.1"
   inkscape:version="0.48.1 r9760"
   sodipodi:docname="logo.svg">
  <defs
     id="defs4">
    <inkscape:path-effect
       effect="bend_path"
       id="path-effect3866"
       is_visible="true"
       bendpath="m 259.73113,599.19523 51.83101,0"
       prop_scale="1"
       scale_y_rel="false"
       vertical="false" />
    <inkscape:perspective
       sodipodi:type="inkscape:persp3d"
       inkscape:vp_x="-590.3957 : 7.2300232e-14 : 0"
       inkscape:vp_y="281.00445 : 1156.2754 : 1"
       inkscape:vp_z="491.55634 : 746.39434 : 1"
       inkscape:persp3d-origin="372.04724 : 350.78739 : 1"
       id="perspective3016" />
  </defs>
  <sodipodi:namedview
     id="base"
     pagecolor="#ffffff"
     bordercolor="#666666"
     borderopacity="1.0"
     inkscape:pageopacity="0.0"
     inkscape:pageshadow="2"
     inkscape:zoom="0.64"
     inkscape:cx="-15.468391"
     inkscape:cy="215.56346"
     inkscape:document-units="px"
     inkscape:current-layer="layer1"
     showgrid="false"
     inkscape:window-width="1192"
     inkscape:window-height="562"
     inkscape:window-x="98"
     inkscape:window-y="216"
     inkscape:window-maximized="0"
     fit-margin-top="0"
     fit-margin-left="0"
     fit-margin-right="0"
     fit-margin-bottom="0" />
  <metadata
     id="metadata7">
    <rdf:RDF>
      <cc:Work
         rdf:about="">
        <dc:format>image/svg+xml</dc:format>
        <dc:type
           rdf:resource="http://purl.org/dc/dcmitype/StillImage" />
        <dc:title />
      </cc:Work>
    </rdf:RDF>
  </metadata>
  <g
     inkscape:label="Layer 1"
     inkscape:groupmode="layer"
     id="layer1"
     transform="translate(-227.28125,-176.15618)">
    <path
       style="font-size:medium;font-style:normal;font-variant:normal;font-weight:normal;font-stretch:normal;text-indent:0;text-align:start;text-decoration:none;line-height:normal;letter-spacing:normal;word-spacing:normal;text-transform:none;direction:ltr;block-progression:tb;writing-mode:lr-tb;text-anchor:start;baseline-shift:baseline;color:#000000;fill:#000000;fill-opacity:1;stroke:none;stroke-width:1px;marker:none;visibility:visible;display:inline;overflow:visible;enable-background:accumulate;font-family:Sans;-inkscape-font-specification:Sans"
       d="m 585.99671,198.5928 -2.53632,0.15827 -335.58704,5.07265 -2.53633,0 0,2.53632 0.63408,29.1677 9.66972,437.19843 0,2.85336 3.01189,-0.47532 333.05073,-58.96947 2.06075,-0.31703 0,-2.21928 -7.1334,-386.63052 -0.4753,-25.83878 -0.15827,-2.53633 z"
       id="path3761" />
    <path
       style="font-size:medium;font-style:normal;font-variant:normal;font-weight:normal;font-stretch:normal;text-indent:0;text-align:start;text-decoration:none;line-height:normal;letter-spacing:normal;word-spacing:normal;text-transform:none;direction:ltr;block-progression:tb;writing-mode:lr-tb;text-anchor:start;baseline-shift:baseline;color:#000000;fill:#ffffff;fill-opacity:1;stroke:none;stroke-width:1px;marker:none;visibility:visible;display:inline;overflow:visible;enable-background:accumulate;font-family:Sans;-inkscape-font-specification:Sans"
       d="m 581.08259,203.82397 0.47531,23.14394 7.1334,384.56975 -327.97783,58.17689 -9.66973,-434.34508 -0.63408,-26.47285 330.67293,-5.07265 z"
       id="path2985" />
    <path
       style="font-size:medium;font-style:normal;font-variant:normal;font-weight:normal;font-stretch:normal;text-indent:0;text-align:start;text-decoration:none;line-height:normal;letter-spacing:normal;word-spacing:normal;text-transform:none;direction:ltr;block-progression:tb;writing-mode:lr-tb;text-anchor:start;baseline-shift:baseline;color:#000000;fill:#000000;fill-opacity:1;stroke:none;stroke-width:1px;marker:none;visibility:visible;display:inline;overflow:visible;enable-background:accumulate;font-family:Sans;-inkscape-font-specification:Sans"
       d="m 447.92572,418.30166 c -0.62182,0.63707 -2.10018,0.94595 -4.28006,1.10964 -1.90736,0.14306 -4.29734,0.32872 -6.65784,1.10965 -8.14616,-1.26897 -15.59691,3.96107 -17.91277,11.73049 -0.1608,0.19174 -0.17044,0.43624 -0.31705,0.63408 -0.0506,0.19682 -0.27443,0.27544 -0.31703,0.4753 -4.44476,6.63675 -1.65571,15.99632 6.02377,18.70537 0.23233,0.0822 0.39363,0.24806 0.63407,0.31704 5.90344,3.60275 12.22558,6.84446 15.21793,10.93789 0.0405,0.0533 0.12073,0.105 0.15827,0.15826 4.62468,7.37741 10.21509,13.44616 12.84013,20.76614 1.59849,5.02191 0.44994,11.09463 0.79259,17.59573 -1.23179,5.7859 -7.75622,10.24552 -14.10828,12.36456 -0.0669,0.0203 -0.0913,0.13646 -0.15827,0.15828 -4.52104,1.04465 -8.52995,3.09471 -12.36457,4.7556 -3.89407,1.68664 -7.49275,2.8428 -11.25492,2.53631 l -0.31705,0 -0.4753,0 c -7.83018,1.5916 -16.32259,0.35864 -25.20469,0.79261 -0.0558,0.002 -0.10252,-0.003 -0.15827,0 -17.2305,0.15117 -34.63042,-0.24654 -51.9946,0.31704 l -0.15826,0 -0.15827,0 c -10.17344,1.86779 -19.28634,6.12339 -28.53362,6.02376 l -0.4753,0 -0.31704,0.15827 c -0.86311,0.314 -3.82249,0.71631 -6.49933,1.10964 -1.33841,0.19682 -2.68651,0.43472 -3.96299,0.95112 -1.2765,0.51634 -2.75516,1.43566 -3.32894,3.1704 l 4.91413,1.5852 c -0.0893,0.26987 -0.26581,0.0771 0.31704,-0.15826 0.58306,-0.23588 1.68544,-0.46263 2.85336,-0.63409 2.03778,-0.29928 4.36907,-0.5282 6.49933,-1.10964 0.31145,-0.0852 0.64915,-0.0507 0.95112,-0.15826 10.23888,-0.16435 19.20381,-4.17504 28.05806,-5.86525 17.21274,-0.55874 34.58757,-0.16029 51.99459,-0.31703 l 0.15827,0 c 7.98286,-0.40886 16.58997,0.80619 25.36321,-0.79261 0.27392,-0.0507 0.51833,0.0558 0.7926,0 l 0,-0.15826 c 4.73176,0.17652 9.11229,-1.17006 12.99865,-2.85336 4.12239,-1.78552 7.85549,-3.76892 11.57196,-4.59708 l 0.15827,0 0.15828,0 c 7.43059,-2.42052 15.7473,-7.64519 17.59573,-16.32758 l 0.15825,-0.31704 0,-0.31703 c -0.40225,-5.76927 1.08443,-12.60497 -1.10963,-19.49798 l 0,-0.15826 c -3.09691,-8.63582 -9.16556,-14.95572 -13.47421,-21.87578 l 0,-0.15826 c -4.25108,-6.02564 -11.6927,-9.12401 -17.43721,-12.68161 l -0.31704,-0.15828 -0.3173,-0.15901 c -5.24018,-1.50811 -7.09059,-7.93251 -3.64597,-12.04754 l 0.47532,-0.47529 0,-0.47532 c 1.30174,-6.13638 7.172,-10.24598 13.31569,-9.03565 l 0.63407,0.15827 0.79261,-0.31704 c 1.3899,-0.6035 3.62784,-0.61272 6.02377,-0.7926 2.3959,-0.18008 5.283,-0.47429 7.45044,-2.69484 l -3.64597,-3.48744 z"
       id="path3836"
       inkscape:connector-curvature="0" />
    <g
       id="g3892"
       transform="matrix(5.0726433,0,0,5.0726433,-897.67216,-2753.3289)">
      <path
         inkscape:connector-curvature="0"
         id="path3886"
         d="m 311.46468,577.62029 c 2.76237,0.37501 4.30259,1.39245 5.3125,4.25 -12.44982,11.76334 -41.6875,39.59375 -41.6875,39.59375 l -10.14351,4.55755 5.39351,-8.8388 c 0,0 26.78299,-25.73484 41.125,-39.5625 z"
         style="fill:#000000;fill-opacity:1;stroke:none" />
      <path
         inkscape:connector-curvature="0"
         id="rect3824"
         d="m 267.53079,623.44443 0.19421,0.23737 6.6507,-2.83551 -0.44885,-1.26885 -1.20843,-0.23306 -0.5179,-1.16527 -1.13938,-0.33664 z"
         style="fill:#ffffff;fill-opacity:1;stroke:none" />
      <path
         inkscape:connector-curvature="0"
         id="path3890"
         d="m 271.80843,617.15154 1.13105,0.32787 0.50957,1.1565 1.20011,0.22429 0.44052,1.26009 35.625,-33.90625 -3.65625,-2.96875 z"
         style="fill:#ffffff;fill-opacity:1;stroke:none" />
      <path
         inkscape:connector-curvature="0"
         id="path3888"
         d="m 307.80843,582.52654 3.65625,3 4.09527,-3.92175 c -0.69767,-1.65535 -1.19426,-2.36018 -3.82561,-2.84791 z"
         style="fill:#ffffff;fill-opacity:1;stroke:none" />
    </g>
  </g>
</svg>
