<?xml version="1.0" encoding="UTF-8" standalone="no"?>
<!-- Created with Inkscape (http://www.inkscape.org/) -->

<svg
   xmlns:dc="http://purl.org/dc/elements/1.1/"
   xmlns:cc="http://creativecommons.org/ns#"
   xmlns:rdf="http://www.w3.org/1999/02/22-rdf-syntax-ns#"
   xmlns:svg="http://www.w3.org/2000/svg"
   xmlns="http://www.w3.org/2000/svg"
   xmlns:inkscape="http://www.inkscape.org/namespaces/inkscape"
   version="1.1"
   width="500"
   height="500"
   id="svg2">
  <defs
     id="defs4">
    <inkscape:path-effect
       effect="bend_path"
       id="path-effect3866" />
  </defs>
  <metadata
     id="metadata7">
    <rdf:RDF>
      <cc:Work
         rdf:about="">
        <dc:format>image/svg+xml</dc:format>
        <dc:type
           rdf:resource="http://purl.org/dc/dcmitype/StillImage" />
        <dc:title></dc:title>
      </cc:Work>
    </rdf:RDF>
  </metadata>
  <g
     transform="translate(-227.28125,-176.15618)"
     id="layer1">
    <path
       d="m 584.78078,200.29533 -2.52727,0.1577 -334.38921,5.05455 -2.52728,0 0,2.52726 0.63182,29.06359 9.6352,435.63792 0,2.84318 3.00114,-0.47362 331.86196,-58.75899 2.05339,-0.3159 0,-2.21136 -7.10793,-385.2505 -0.47361,-25.74656 -0.1577,-2.52727 z"
       id="path3761"
       style="font-size:medium;font-style:normal;font-variant:normal;font-weight:normal;font-stretch:normal;text-indent:0;text-align:start;text-decoration:none;line-height:normal;letter-spacing:normal;word-spacing:normal;text-transform:none;direction:ltr;block-progression:tb;writing-mode:lr-tb;text-anchor:start;baseline-shift:baseline;color:#000000;fill:#000000;fill-opacity:1;stroke:none;stroke-width:1px;marker:none;visibility:visible;display:inline;overflow:visible;enable-background:accumulate;font-family:Sans;-inkscape-font-specification:Sans" />
    <path
       d="m 579.8842,205.50783 0.47361,23.06133 7.10794,383.19709 -326.80716,57.96923 -9.63522,-432.79475 -0.63182,-26.37836 329.49265,-5.05454 z"
       id="path2985"
       style="font-size:medium;font-style:normal;font-variant:normal;font-weight:normal;font-stretch:normal;text-indent:0;text-align:start;text-decoration:none;line-height:normal;letter-spacing:normal;word-spacing:normal;text-transform:none;direction:ltr;block-progression:tb;writing-mode:lr-tb;text-anchor:start;baseline-shift:baseline;color:#000000;fill:#ffffff;fill-opacity:1;stroke:none;stroke-width:1px;marker:none;visibility:visible;display:inline;overflow:visible;enable-background:accumulate;font-family:Sans;-inkscape-font-specification:Sans" />
    <path
       d="m 447.20261,419.21997 c -0.6196,0.6348 -2.09268,0.94258 -4.26478,1.10568 -1.90055,0.14255 -4.282,0.32755 -6.63408,1.10569 -8.11708,-1.26444 -15.54124,3.94693 -17.84883,11.68862 -0.16023,0.19106 -0.16983,0.43468 -0.31592,0.63182 -0.0504,0.19612 -0.27345,0.27445 -0.3159,0.4736 -4.42889,6.61306 -1.6498,15.93922 6.00227,18.63861 0.2315,0.0819 0.39223,0.24717 0.63181,0.3159 5.88237,3.58989 12.18194,6.82003 15.16361,10.89885 0.0404,0.0531 0.1203,0.10463 0.15771,0.1577 4.60817,7.35108 10.17862,13.39816 12.7943,20.69202 1.59278,5.00398 0.44833,11.05503 0.78976,17.53292 -1.2274,5.76525 -7.72854,10.20895 -14.05793,12.32043 -0.0667,0.0202 -0.091,0.13597 -0.1577,0.15771 -4.5049,1.04092 -8.49951,3.08367 -12.32044,4.73863 -3.88017,1.68062 -7.466,2.83265 -11.21475,2.52726 l -0.31591,0 -0.47361,0 c -7.80223,1.58591 -16.26433,0.35736 -25.11472,0.78978 -0.0556,0.002 -0.10216,-0.003 -0.15771,0 -17.169,0.15063 -34.50681,-0.24566 -51.80901,0.3159 l -0.1577,0 -0.1577,0 c -10.13713,1.86113 -19.2175,6.10154 -28.43178,6.00226 l -0.4736,0 -0.31591,0.15771 c -0.86003,0.31288 -3.80884,0.71375 -6.47613,1.10568 -1.33363,0.19612 -2.67692,0.43317 -3.94884,0.94772 -1.27195,0.5145 -2.74533,1.43054 -3.31706,3.15909 l 4.89659,1.57954 c -0.089,0.26891 -0.26486,0.0768 0.31591,-0.1577 0.58097,-0.23503 1.67942,-0.46097 2.84317,-0.63182 2.03051,-0.29821 4.35348,-0.52632 6.47613,-1.10568 0.31034,-0.0849 0.64684,-0.0505 0.94773,-0.1577 10.20233,-0.16376 19.13526,-4.16014 27.95791,-5.84431 17.1513,-0.55675 34.46411,-0.15972 51.809,-0.3159 l 0.15771,0 c 7.95436,-0.4074 16.53075,0.80331 25.27268,-0.78978 0.27294,-0.0505 0.51648,0.0556 0.78977,0 l 0,-0.1577 c 4.71487,0.17589 9.07976,-1.16588 12.95225,-2.84317 4.10768,-1.77915 7.82745,-3.75547 11.53066,-4.58067 l 0.1577,0 0.15772,0 c 7.40407,-2.41188 15.69109,-7.61791 17.53292,-16.2693 l 0.15769,-0.31591 0,-0.3159 c -0.40082,-5.74868 1.08056,-12.55998 -1.10567,-19.42839 l 0,-0.15769 c -3.08586,-8.605 -9.13285,-14.90234 -13.42612,-21.7977 l 0,-0.15769 c -4.2359,-6.00414 -11.65096,-9.09145 -17.37497,-12.63635 l -0.31591,-0.15771 -0.31616,-0.15845 c -5.22148,-1.50272 -7.06528,-7.90419 -3.63296,-12.00454 l 0.47362,-0.47359 0,-0.47362 c 1.2971,-6.11448 7.1464,-10.20941 13.26817,-9.0034 l 0.6318,0.1577 0.78978,-0.3159 c 1.38494,-0.60135 3.61489,-0.61054 6.00227,-0.78978 2.38735,-0.17943 5.26415,-0.47259 7.42385,-2.68522 l -3.63296,-3.47499 z"
       id="path3836"
       style="font-size:medium;font-style:normal;font-variant:normal;font-weight:normal;font-stretch:normal;text-indent:0;text-align:start;text-decoration:none;line-height:normal;letter-spacing:normal;word-spacing:normal;text-transform:none;direction:ltr;block-progression:tb;writing-mode:lr-tb;text-anchor:start;baseline-shift:baseline;color:#000000;fill:#000000;fill-opacity:1;stroke:none;stroke-width:1px;marker:none;visibility:visible;display:inline;overflow:visible;enable-background:accumulate;font-family:Sans;-inkscape-font-specification:Sans" />
    <g
       transform="matrix(5.0545373,0,0,5.0545373,-893.59237,-2741.09)"
       id="g3892">
      <path
         d="m 311.11074,577.97423 c 0.72776,-0.68373 2.3989,-1.34222 4.32078,0.4045 1.62618,1.47796 1.73915,2.87955 0.9645,3.79104 -12.44982,11.76334 -41.30634,39.29427 -41.30634,39.29427 l -10.14351,4.55755 5.39351,-8.8388 c 0,0 26.42905,-25.3809 40.77106,-39.20856 z"
         id="path3886"
         style="fill:#000000;fill-opacity:1;stroke:none" />
      <path
         d="m 267.53079,623.44443 0.19421,0.23737 6.6507,-2.83551 -0.44885,-1.26885 -1.20843,-0.23306 -0.5179,-1.16527 -1.13938,-0.33664 z"
         id="rect3824"
         style="fill:#ffffff;fill-opacity:1;stroke:none" />
      <path
         d="m 271.80843,617.15154 1.13105,0.32787 0.50957,1.1565 1.20011,0.22429 0.44052,1.26009 35.625,-33.90625 -3.65625,-2.96875 z"
         id="path3890"
         style="fill:#ffffff;fill-opacity:1;stroke:none" />
      <path
         d="m 307.80843,582.52654 3.65625,3 4.09527,-3.92175 c 0.71297,-0.71878 0.1522,-1.78418 -0.72484,-2.56968 -1.36776,-1.225 -2.46574,-0.90559 -3.10077,-0.27823 z"
         id="path3888"
         style="fill:#ffffff;fill-opacity:1;stroke:none" />
    </g>
  </g>
</svg>
